HIERARCHY
ROOT Hips
{
    OFFSET 0.000000 0.000000 0.000000
    CHANNELS 6 Xposition Yposition Zposition Zrotation Xrotation Yrotation
    JOINT Spine
    {
        OFFSET -0.000000 14.517291 0.000000
        CHANNELS 3 Zrotation Xrotation Yrotation
        JOINT Spine1
        {
            OFFSET -0.000000 37.558300 0.000000
            CHANNELS 3 Zrotation Xrotation Yrotation
            JOINT Neck
            {
                OFFSET -0.000000 37.404057 3.400369
                CHANNELS 3 Zrotation Xrotation Yrotation
                JOINT Head
                {
                    OFFSET -0.000000 24.785618 -3.540803
                    CHANNELS 3 Zrotation Xrotation Yrotation
                    End Site
                    {
                        OFFSET -0.000000 35.408028 0.000000
                    }
                }
            }
            JOINT LeftShoulder
            {
                OFFSET 6.992933 33.973492 -0.192664
                CHANNELS 3 Zrotation Xrotation Yrotation
                JOINT LeftArm
                {
                    OFFSET 21.527611 0.000000 0.000000
                    CHANNELS 3 Zrotation Xrotation Yrotation
                    JOINT LeftForeArm
                    {
                        OFFSET 56.353916 0.000000 0.000000
                        CHANNELS 3 Zrotation Xrotation Yrotation
                        JOINT LeftHand
                        {
                            OFFSET 47.774071 0.000000 0.000000
                            CHANNELS 3 Zrotation Xrotation Yrotation
                            End Site
                            {
                                OFFSET 26.556021 0.000000 0.000000
                            }
                        }
                    }
                }
            }
            JOINT RightShoulder
            {
                OFFSET -7.065357 33.973492 -0.192664
                CHANNELS 3 Zrotation Xrotation Yrotation
                JOINT RightArm
                {
                    OFFSET -21.527611 0.000000 0.000000
                    CHANNELS 3 Zrotation Xrotation Yrotation
                    JOINT RightForeArm
                    {
                        OFFSET -56.353916 0.000000 0.000000
                        CHANNELS 3 Zrotation Xrotation Yrotation
                        JOINT RightHand
                        {
                            OFFSET -47.774071 0.000000 0.000000
                            CHANNELS 3 Zrotation Xrotation Yrotation
                            End Site
                            {
                                OFFSET -26.556021 0.000000 0.000000
                            }
                        }
                    }
                }
            }
        }
    }
    JOINT LeftUpLeg
    {
        OFFSET 17.704014 0.000000 0.000000
        CHANNELS 3 Zrotation Xrotation Yrotation
        JOINT LeftLeg
        {
            OFFSET -0.000000 -81.181816 0.000000
            CHANNELS 3 Zrotation Xrotation Yrotation
            JOINT LeftFoot
            {
                OFFSET -0.000000 -62.821102 0.000000
                CHANNELS 3 Zrotation Xrotation Yrotation
                JOINT LeftToeBase
                {
                    OFFSET -0.000000 -11.507608 26.556021
                    CHANNELS 3 Zrotation Xrotation Yrotation
                    End Site
                    {
                        OFFSET -0.000000 0.000000 7.081605
                    }
                }
            }
        }
    }
    JOINT RightUpLeg
    {
        OFFSET -17.704014 0.000000 0.000000
        CHANNELS 3 Zrotation Xrotation Yrotation
        JOINT RightLeg
        {
            OFFSET -0.000000 -81.181816 0.000000
            CHANNELS 3 Zrotation Xrotation Yrotation
            JOINT RightFoot
            {
                OFFSET -0.000000 -62.821102 0.000000
                CHANNELS 3 Zrotation Xrotation Yrotation
                JOINT RightToeBase
                {
                    OFFSET -0.000000 -11.507608 26.556021
                    CHANNELS 3 Zrotation Xrotation Yrotation
                    End Site
                    {
                        OFFSET -0.000000 0.000000 7.081605
                    }
                }
            }
        }
    }
}
MOTION
Frames:    4
Frame Time:    0.008333
-7.635562    157.431824    -93.208733    -4.659132    0.588341    53.384445    -0.848154    0.280573    -3.173078    -8.788468    -0.464819    -1.092799    7.496386    -3.321829    -8.200252    12.840559    0.513113    -8.111382    8.877570    3.912024    -21.868694    -25.754581    21.317244    -57.787533    -16.540745    2.138363    -95.051842    16.873064    -16.592321    -4.168104    -14.735384    -6.160029    -4.696146    22.750505    -23.300188    56.131119    -16.634655    -16.342794    50.896519    -8.822424    -10.695474    27.629723    23.635977    -12.012078    0.100265    -7.930597    19.956272    -19.116737    2.341457    -16.001839    42.186832    0.000000    0.000000    0.000000    -20.171947    -20.564629    -23.844511    11.313878    23.884924    -14.935196    3.004422    4.511889    -22.533625    0.000000    0.000000    0.000000    
-7.604517    157.478943    -93.186150    -4.642231    0.614154    53.168205    -0.814132    0.268904    -3.129342    -8.836420    -0.485385    -1.080012    7.477188    -3.442356    -8.163665    12.823930    0.681284    -8.098619    8.869459    3.897941    -21.890003    -25.785442    21.259089    -57.794544    -16.588821    2.159781    -95.037155    16.764658    -16.619276    -4.190201    -14.762318    -6.163386    -4.658450    22.760323    -23.307917    56.229244    -16.656046    -16.333076    50.833817    -8.829350    -10.689919    27.652668    23.511137    -11.886065    -0.432667    -7.820269    19.913610    -19.510014    2.468383    -16.356194    42.067051    0.000000    0.000000    0.000000    -20.090942    -20.563824    -23.853178    11.202731    23.741600    -14.803705    2.969650    4.617894    -22.380589    0.000000    0.000000    0.000000    
-7.570904    157.520508    -93.173355    -4.640230    0.628815    52.957878    -0.749015    0.261197    -3.093845    -8.891814    -0.519643    -1.071019    7.485068    -3.488885    -8.100924    12.792057    0.722804    -8.046471    8.871609    3.904719    -21.878172    -25.791378    21.237000    -57.843689    -16.552740    2.132432    -95.035042    16.987862    -16.595366    -4.064677    -14.790585    -6.173838    -4.619141    22.812204    -23.356201    56.346207    -16.605114    -16.282568    50.816063    -8.832397    -10.666234    27.648209    23.397150    -11.770993    -1.020566    -7.710961    19.870544    -19.883320    2.747334    -16.606657    41.925529    0.000000    0.000000    0.000000    -19.984867    -20.570505    -23.785421    11.101656    23.579313    -14.690319    2.921965    4.737460    -22.283613    0.000000    0.000000    0.000000    
-7.525540    157.566711    -93.174103    -4.645553    0.649482    52.733597    -0.665697    0.237635    -3.049858    -8.969849    -0.543351    -1.058477    7.478467    -3.530521    -8.041774    12.796999    0.757344    -7.989336    8.888363    3.902779    -21.854630    -25.811941    21.216740    -57.889851    -16.541700    2.119979    -95.025604    16.918736    -16.602577    -4.153415    -14.819866    -6.188352    -4.577537    22.874708    -23.419287    56.460220    -16.523010    -16.265961    50.804504    -8.747648    -10.673100    27.686241    23.288269    -11.684178    -1.685182    -7.632592    19.860811    -20.227924    2.900849    -16.918009    41.793053    0.000000    0.000000    0.000000    -19.871607    -20.597708    -23.672419    10.997590    23.407703    -14.602141    2.866052    4.877571    -22.196411    0.000000    0.000000    0.000000    
